<?xml version="1.0" encoding="iso-8859-1"?>
<!-- Uploaded to: SVG Repo, www.svgrepo.com, Generator: SVG Repo Mixer Tools -->
<svg height="800px" width="800px" version="1.1" id="Layer_1" xmlns="http://www.w3.org/2000/svg" xmlns:xlink="http://www.w3.org/1999/xlink" 
	 viewBox="0 0 390.335 390.335" xml:space="preserve">
<path style="fill:#FFFFFF;" d="M357.689,86.756H32.517c-5.947,0-10.861,4.848-10.861,10.861v234.667
	c0,5.947,4.848,10.861,10.861,10.861h325.172c5.948,0,10.861-4.848,10.861-10.861V97.616
	C368.549,91.669,363.636,86.756,357.689,86.756z"/>
<path style="fill:#FFC10D;" d="M43.378,108.477V235.83h42.796c5.947,0,10.861,4.848,10.861,10.861
	c0,5.947-4.848,10.861-10.861,10.861H43.378v26.57h21.139c5.947,0,10.861,4.848,10.861,10.861c0,5.947-4.848,10.861-10.861,10.861
	H43.378v15.709h303.515V108.477H43.378z"/>
<polygon style="fill:#56ACE0;" points="150.691,125.285 146.295,150.174 202.667,206.545 231.952,177.261 175.58,120.889 "/>
<path style="fill:#194F82;" d="M357.689,65.099h-84.558V10.925c0-5.947-4.848-10.861-10.861-10.861h-134.4
	c-5.947,0-10.861,4.848-10.861,10.861v54.174H32.517C14.61,65.099,0,79.709,0,97.616v234.667C0,350.19,14.61,364.8,32.517,364.8
	h34.715v14.61c0,5.947,4.848,10.861,10.861,10.861s10.861-4.848,10.861-10.861V364.8h224.905v14.61
	c0,5.947,4.849,10.861,10.861,10.861c5.948,0,10.861-4.848,10.861-10.861V364.8h22.238c17.907,0,32.517-14.61,32.517-32.517V97.616
	C390.206,79.709,375.596,65.099,357.689,65.099z M138.731,21.721h113.261v43.378H138.731V21.721z M368.549,332.283
	c0,5.947-4.849,10.861-10.861,10.861H32.517c-5.947,0-10.861-4.848-10.861-10.861V97.616c0-5.947,4.848-10.861,10.861-10.861h88.372
	l11.895,23.273c-1.099,1.099-1.616,2.715-1.616,3.814l-7.046,37.366c-0.517,3.814,0.517,7.046,2.715,9.762l68.267,68.331
	c4.331,4.331,10.861,4.331,15.192,0l44.994-44.994c4.331-4.331,4.331-10.861,0-15.192l-68.331-67.685
	c-2.715-2.715-5.947-3.814-9.762-2.715l-23.855,4.331l-8.145-16.291h212.428c5.947,0,10.861,4.848,10.861,10.861v234.667H368.549z
	 M165.301,125.802l-1.616-2.715l11.895-2.198l56.372,56.372l-29.285,29.285l-56.372-56.372l2.198-11.378
	c3.232,2.715,8.145,3.232,11.895,1.616C165.818,137.697,168.016,131.232,165.301,125.802z"/>
</svg>